<svg class="diagram-root" style="background: #f5f6f6" xmlns="http://www.w3.org/2000/svg" xmlns:xlink="http://www.w3.org/1999/xlink"><style>.diagram-root { font-family: "Helvetica Neue", sans-serif; font-size: 12px; } .t { overflow: visible; } .t-bg { y: 40; fill: #fff;   } .th { fill: #005aa0;   } .tht { fill: #fff; font-size: 14px;  } .tf { fill: #323c46; overflow: visible; } .tf.pk { fill: #005aa0; font-weight: bold; } .tf.fk { font-weight: bold; } .ty { fill: #adb1b5; font-weight: normal; text-anchor: end; } .r { fill: transparent; stroke: #c3c3c3; stroke-width: 1; } .l { stroke: 1; } .i { fill: #c2c7ce; stroke: #c2c7ce; } .i.ix { fill: #afb3b6; stroke: #000; } .fa { fill: transparent; overflow: visible; } .fa .bg.hover { fill: #f7f7f7; } .c { cy: 12; r: 4; stroke: #d2d2dc; fill: #d2d2dc; } .hr { fill: transparent; stroke: #323c46; stroke-opacity: 0.035; stroke-width: 13; } .dc { stroke: #fa5a3c; fill: #fa5a3c; } .x { stroke: white; stroke-width: 1; } .hl .th { fill: #1b9bff; } .hl .tht {  } .fhl .bg { fill: #e7f4ff; } .fhls .bg {  } .r.hl { stroke: #1b9bff; } .dim { opacity: 0.25; }</style><g class="drawing-wrapper" transform="translate(19, 22) scale(1,1)"><g class="rs"><path d="M 349 654 m -1, 0 a 1,1 0 1,0 2,0 a 1,1 0 1,0 -2,0 M 349 654 m -0.5, 0 a 0.5,0.5 0 1,0 1,0 a 0.5,0.5 0 1,0 -1,0  M349 654 L349 654 337 654 M 349 660 m -1, 0 a 1,1 0 1,0 2,0 a 1,1 0 1,0 -2,0 M 349 660 m -0.5, 0 a 0.5,0.5 0 1,0 1,0 a 0.5,0.5 0 1,0 -1,0  M349 660 L349 660 342 654 349 648 M 349 648 m -1, 0 a 1,1 0 1,0 2,0 a 1,1 0 1,0 -2,0 M 349 648 m -0.5, 0 a 0.5,0.5 0 1,0 1,0 a 0.5,0.5 0 1,0 -1,0  M337 654 Q 305.5 654, 274 568.5 T 211 483 M 199 483 m -1, 0 a 1,1 0 1,0 2,0 a 1,1 0 1,0 -2,0 M 199 483 m -0.5, 0 a 0.5,0.5 0 1,0 1,0 a 0.5,0.5 0 1,0 -1,0  M199 483 L199 483 211 483 M205 489 L205 489 205 477" id="h3685100417" class="r"></path><path d="M 349 679 m -1, 0 a 1,1 0 1,0 2,0 a 1,1 0 1,0 -2,0 M 349 679 m -0.5, 0 a 0.5,0.5 0 1,0 1,0 a 0.5,0.5 0 1,0 -1,0  M349 679 L349 679 337 679 M 349 685 m -1, 0 a 1,1 0 1,0 2,0 a 1,1 0 1,0 -2,0 M 349 685 m -0.5, 0 a 0.5,0.5 0 1,0 1,0 a 0.5,0.5 0 1,0 -1,0  M349 685 L349 685 342 679 349 673 M 349 673 m -1, 0 a 1,1 0 1,0 2,0 a 1,1 0 1,0 -2,0 M 349 673 m -0.5, 0 a 0.5,0.5 0 1,0 1,0 a 0.5,0.5 0 1,0 -1,0  M337 679 Q 302.9 679, 268.8 678.5 T 200.6 678 M 188.6 678 m -1, 0 a 1,1 0 1,0 2,0 a 1,1 0 1,0 -2,0 M 188.6 678 m -0.5, 0 a 0.5,0.5 0 1,0 1,0 a 0.5,0.5 0 1,0 -1,0  M188.6 678 L188.6 678 200.6 678 M194.6 684 L194.6 684 194.6 672" id="h635703471" class="r"></path><path d="M 292 154 m -1, 0 a 1,1 0 1,0 2,0 a 1,1 0 1,0 -2,0 M 292 154 m -0.5, 0 a 0.5,0.5 0 1,0 1,0 a 0.5,0.5 0 1,0 -1,0  M292 154 L292 154 280 154 M 292 160 m -1, 0 a 1,1 0 1,0 2,0 a 1,1 0 1,0 -2,0 M 292 160 m -0.5, 0 a 0.5,0.5 0 1,0 1,0 a 0.5,0.5 0 1,0 -1,0  M292 160 L292 160 285 154 292 148 M 292 148 m -1, 0 a 1,1 0 1,0 2,0 a 1,1 0 1,0 -2,0 M 292 148 m -0.5, 0 a 0.5,0.5 0 1,0 1,0 a 0.5,0.5 0 1,0 -1,0  M280 154 C -114 154, 15 292, 65 292 M 77 292 m -1, 0 a 1,1 0 1,0 2,0 a 1,1 0 1,0 -2,0 M 77 292 m -0.5, 0 a 0.5,0.5 0 1,0 1,0 a 0.5,0.5 0 1,0 -1,0  M77 292 L77 292 65 292 M71 298 L71 298 71 286" id="h2166291347" class="r"></path><path d="M 621 117 m -1, 0 a 1,1 0 1,0 2,0 a 1,1 0 1,0 -2,0 M 621 117 m -0.5, 0 a 0.5,0.5 0 1,0 1,0 a 0.5,0.5 0 1,0 -1,0  M621 117 L621 117 609 117 M 621 123 m -1, 0 a 1,1 0 1,0 2,0 a 1,1 0 1,0 -2,0 M 621 123 m -0.5, 0 a 0.5,0.5 0 1,0 1,0 a 0.5,0.5 0 1,0 -1,0  M621 123 L621 123 614 117 621 111 M 621 111 m -1, 0 a 1,1 0 1,0 2,0 a 1,1 0 1,0 -2,0 M 621 111 m -0.5, 0 a 0.5,0.5 0 1,0 1,0 a 0.5,0.5 0 1,0 -1,0  M609 117 Q 574.19 117, 539.39 110.5 T 469.77 104 M 457.77 104 m -1, 0 a 1,1 0 1,0 2,0 a 1,1 0 1,0 -2,0 M 457.77 104 m -0.5, 0 a 0.5,0.5 0 1,0 1,0 a 0.5,0.5 0 1,0 -1,0  M457.77 104 L457.77 104 469.77 104 M463.77 110 L463.77 110 463.77 98" id="h885816754" class="r"></path><path d="M 621 142 m -1, 0 a 1,1 0 1,0 2,0 a 1,1 0 1,0 -2,0 M 621 142 m -0.5, 0 a 0.5,0.5 0 1,0 1,0 a 0.5,0.5 0 1,0 -1,0  M621 142 L621 142 609 142 M 621 148 m -1, 0 a 1,1 0 1,0 2,0 a 1,1 0 1,0 -2,0 M 621 148 m -0.5, 0 a 0.5,0.5 0 1,0 1,0 a 0.5,0.5 0 1,0 -1,0  M621 148 L621 148 614 142 621 136 M 621 136 m -1, 0 a 1,1 0 1,0 2,0 a 1,1 0 1,0 -2,0 M 621 136 m -0.5, 0 a 0.5,0.5 0 1,0 1,0 a 0.5,0.5 0 1,0 -1,0  M609 142 Q 587.53 142, 566.05 385.5 T 523.1 629 M 511.1 629 m -1, 0 a 1,1 0 1,0 2,0 a 1,1 0 1,0 -2,0 M 511.1 629 m -0.5, 0 a 0.5,0.5 0 1,0 1,0 a 0.5,0.5 0 1,0 -1,0  M511.1 629 L511.1 629 523.1 629 M517.1 635 L517.1 635 517.1 623" id="h1351386205" class="r"></path><path d="M 871 172 m -1, 0 a 1,1 0 1,0 2,0 a 1,1 0 1,0 -2,0 M 871 172 m -0.5, 0 a 0.5,0.5 0 1,0 1,0 a 0.5,0.5 0 1,0 -1,0  M871 172 L871 172 859 172 M 871 178 m -1, 0 a 1,1 0 1,0 2,0 a 1,1 0 1,0 -2,0 M 871 178 m -0.5, 0 a 0.5,0.5 0 1,0 1,0 a 0.5,0.5 0 1,0 -1,0  M871 178 L871 178 864 172 871 166 M 871 166 m -1, 0 a 1,1 0 1,0 2,0 a 1,1 0 1,0 -2,0 M 871 166 m -0.5, 0 a 0.5,0.5 0 1,0 1,0 a 0.5,0.5 0 1,0 -1,0  M859 172 Q 839.65 172, 820.3 132 T 781.6 92 M 769.6 92 m -1, 0 a 1,1 0 1,0 2,0 a 1,1 0 1,0 -2,0 M 769.6 92 m -0.5, 0 a 0.5,0.5 0 1,0 1,0 a 0.5,0.5 0 1,0 -1,0  M769.6 92 L769.6 92 781.6 92 M775.6 98 L775.6 98 775.6 86" id="h2769132285" class="r"></path><path d="M 776 486 m -1, 0 a 1,1 0 1,0 2,0 a 1,1 0 1,0 -2,0 M 776 486 m -0.5, 0 a 0.5,0.5 0 1,0 1,0 a 0.5,0.5 0 1,0 -1,0  M776 486 L776 486 764 486 M 776 492 m -1, 0 a 1,1 0 1,0 2,0 a 1,1 0 1,0 -2,0 M 776 492 m -0.5, 0 a 0.5,0.5 0 1,0 1,0 a 0.5,0.5 0 1,0 -1,0  M776 492 L776 492 769 486 776 480 M 776 480 m -1, 0 a 1,1 0 1,0 2,0 a 1,1 0 1,0 -2,0 M 776 480 m -0.5, 0 a 0.5,0.5 0 1,0 1,0 a 0.5,0.5 0 1,0 -1,0  M764 486 Q 703.78 486, 643.55 557.5 T 523.1 629 M 511.1 629 m -1, 0 a 1,1 0 1,0 2,0 a 1,1 0 1,0 -2,0 M 511.1 629 m -0.5, 0 a 0.5,0.5 0 1,0 1,0 a 0.5,0.5 0 1,0 -1,0  M511.1 629 L511.1 629 523.1 629 M517.1 635 L517.1 635 517.1 623" id="h942707255" class="r"></path><path d="M 776 511 m -1, 0 a 1,1 0 1,0 2,0 a 1,1 0 1,0 -2,0 M 776 511 m -0.5, 0 a 0.5,0.5 0 1,0 1,0 a 0.5,0.5 0 1,0 -1,0  M776 511 L776 511 764 511 M 776 517 m -1, 0 a 1,1 0 1,0 2,0 a 1,1 0 1,0 -2,0 M 776 517 m -0.5, 0 a 0.5,0.5 0 1,0 1,0 a 0.5,0.5 0 1,0 -1,0  M776 517 L776 517 769 511 776 505 M 776 505 m -1, 0 a 1,1 0 1,0 2,0 a 1,1 0 1,0 -2,0 M 776 505 m -0.5, 0 a 0.5,0.5 0 1,0 1,0 a 0.5,0.5 0 1,0 -1,0  M764 511 Q 690.45 511, 616.89 307.5 T 469.77 104 M 457.77 104 m -1, 0 a 1,1 0 1,0 2,0 a 1,1 0 1,0 -2,0 M 457.77 104 m -0.5, 0 a 0.5,0.5 0 1,0 1,0 a 0.5,0.5 0 1,0 -1,0  M457.77 104 L457.77 104 469.77 104 M463.77 110 L463.77 110 463.77 98" id="h136466214" class="r"></path><path d="M 776 536 m -1, 0 a 1,1 0 1,0 2,0 a 1,1 0 1,0 -2,0 M 776 536 m -0.5, 0 a 0.5,0.5 0 1,0 1,0 a 0.5,0.5 0 1,0 -1,0  M776 536 L776 536 764 536 M 776 542 m -1, 0 a 1,1 0 1,0 2,0 a 1,1 0 1,0 -2,0 M 776 542 m -0.5, 0 a 0.5,0.5 0 1,0 1,0 a 0.5,0.5 0 1,0 -1,0  M776 542 L776 542 769 536 776 530 M 776 530 m -1, 0 a 1,1 0 1,0 2,0 a 1,1 0 1,0 -2,0 M 776 530 m -0.5, 0 a 0.5,0.5 0 1,0 1,0 a 0.5,0.5 0 1,0 -1,0  M764 536 Q 625.75 536, 487.5 509.5 T 211 483 M 199 483 m -1, 0 a 1,1 0 1,0 2,0 a 1,1 0 1,0 -2,0 M 199 483 m -0.5, 0 a 0.5,0.5 0 1,0 1,0 a 0.5,0.5 0 1,0 -1,0  M199 483 L199 483 211 483 M205 489 L205 489 205 477" id="h561882504" class="r"></path></g><g class="hrs"></g><g class="ts"><svg width="159" height="150" x="40" y="426" id="h3352761719" class="t"><rect height="40" width="159" class="th"></rect><text x="13" y="25" class="tht">zone</text><rect height="110" width="159" class="t-bg" y="40"></rect><text x="13" y="61" class="tf pk">id<tspan x="146" class="ty">int</tspan></text><path d="M7,14A2,2 0 0,1 5,12A2,2 0 0,1 7,10A2,2 0 0,1 9,12A2,2 0 0,1 7,14M12.65,10C11.83,7.67 9.61,6 7, 6A6, 6 0 0, 0 1, 12A6, 6 0 0, 0 7, 18C9.61, 18 11.83, 16.33 12.65, 14H17V18H21V14H23V10H12.65Z" class="i pk" transform="translate(111.1666669845581, 48) scale(0.65)"></path><text x="13" y="86" class="tf">code<tspan x="146" class="ty">varchar(2)</tspan></text><text x="13" y="111" class="tf">rank<tspan x="146" class="ty">int</tspan></text><text x="13" y="136" class="tf">note<tspan x="146" class="ty">varchar(1000)?</tspan></text></svg><svg width="147.17" height="125" x="3" y="8" id="h1441615791" class="t"><rect height="40" width="147.17" class="th"></rect><text x="13" y="25" class="tht">scaner</text><rect height="85" width="147.17" class="t-bg" y="40"></rect><text x="13" y="61" class="tf pk">id<tspan x="134.17" class="ty">int</tspan></text><path d="M7,14A2,2 0 0,1 5,12A2,2 0 0,1 7,10A2,2 0 0,1 9,12A2,2 0 0,1 7,14M12.65,10C11.83,7.67 9.61,6 7, 6A6, 6 0 0, 0 1, 12A6, 6 0 0, 0 7, 18C9.61, 18 11.83, 16.33 12.65, 14H17V18H21V14H23V10H12.65Z" class="i pk" transform="translate(99.3366669845581, 48) scale(0.65)"></path><text x="13" y="86" class="tf">public_key<tspan x="134.17" class="ty">vacrhar</tspan></text><text x="13" y="111" class="tf">note<tspan x="134.17" class="ty">(1000)</tspan></text></svg><svg width="148.6" height="125" x="40" y="621" id="h2766233781" class="t"><rect height="40" width="148.6" class="th"></rect><text x="13" y="25" class="tht">price_type</text><rect height="85" width="148.6" class="t-bg" y="40"></rect><text x="13" y="61" class="tf pk">id<tspan x="135.6" class="ty">int</tspan></text><path d="M7,14A2,2 0 0,1 5,12A2,2 0 0,1 7,10A2,2 0 0,1 9,12A2,2 0 0,1 7,14M12.65,10C11.83,7.67 9.61,6 7, 6A6, 6 0 0, 0 1, 12A6, 6 0 0, 0 7, 18C9.61, 18 11.83, 16.33 12.65, 14H17V18H21V14H23V10H12.65Z" class="i pk" transform="translate(100.7666669845581, 48) scale(0.65)"></path><text x="13" y="86" class="tf">code<tspan x="135.6" class="ty">varchar(8)</tspan></text><text x="13" y="111" class="tf">note<tspan x="135.6" class="ty">varchar(1000)</tspan></text></svg><svg width="162.1" height="225" x="349" y="572" id="h2297585398" class="t"><rect height="40" width="162.1" class="th"></rect><text x="13" y="25" class="tht">price</text><rect height="185" width="162.1" class="t-bg" y="40"></rect><text x="13" y="61" class="tf pk">id<tspan x="149.1" class="ty">int</tspan></text><path d="M7,14A2,2 0 0,1 5,12A2,2 0 0,1 7,10A2,2 0 0,1 9,12A2,2 0 0,1 7,14M12.65,10C11.83,7.67 9.61,6 7, 6A6, 6 0 0, 0 1, 12A6, 6 0 0, 0 7, 18C9.61, 18 11.83, 16.33 12.65, 14H17V18H21V14H23V10H12.65Z" class="i pk" transform="translate(114.2666669845581, 48) scale(0.65)"></path><text x="13" y="86" class="tf fk">zone_id<tspan x="149.1" class="ty">int</tspan></text><text x="13" y="111" class="tf fk">price_type_id<tspan x="149.1" class="ty">int</tspan></text><text x="13" y="136" class="tf">active_from<tspan x="149.1" class="ty">datetime</tspan></text><text x="13" y="161" class="tf">active_to<tspan x="149.1" class="ty">datetime</tspan></text><text x="13" y="186" class="tf">amount<tspan x="149.1" class="ty">double</tspan></text><text x="13" y="211" class="tf">note<tspan x="149.1" class="ty">varchar(1000)</tspan></text></svg><svg width="148.6" height="125" x="77" y="235" id="h3885585042" class="t"><rect height="40" width="148.6" class="th"></rect><text x="13" y="25" class="tht">ownership_type</text><rect height="85" width="148.6" class="t-bg" y="40"></rect><text x="13" y="61" class="tf pk">id<tspan x="135.6" class="ty">int</tspan></text><path d="M7,14A2,2 0 0,1 5,12A2,2 0 0,1 7,10A2,2 0 0,1 9,12A2,2 0 0,1 7,14M12.65,10C11.83,7.67 9.61,6 7, 6A6, 6 0 0, 0 1, 12A6, 6 0 0, 0 7, 18C9.61, 18 11.83, 16.33 12.65, 14H17V18H21V14H23V10H12.65Z" class="i pk" transform="translate(100.7666669845581, 48) scale(0.65)"></path><text x="13" y="86" class="tf">code<tspan x="135.6" class="ty">varchar</tspan></text><text x="13" y="111" class="tf">note<tspan x="135.6" class="ty">varchar(1000)</tspan></text></svg><svg width="165.77" height="150" x="292" y="47" id="h1503498974" class="t"><rect height="40" width="165.77" class="th"></rect><text x="13" y="25" class="tht">vehicle</text><rect height="110" width="165.77" class="t-bg" y="40"></rect><text x="13" y="61" class="tf pk">id<tspan x="152.77" class="ty">int</tspan></text><path d="M7,14A2,2 0 0,1 5,12A2,2 0 0,1 7,10A2,2 0 0,1 9,12A2,2 0 0,1 7,14M12.65,10C11.83,7.67 9.61,6 7, 6A6, 6 0 0, 0 1, 12A6, 6 0 0, 0 7, 18C9.61, 18 11.83, 16.33 12.65, 14H17V18H21V14H23V10H12.65Z" class="i pk" transform="translate(117.93666698455812, 48) scale(0.65)"></path><text x="13" y="86" class="tf">plate<tspan x="152.77" class="ty">char(200)</tspan></text><text x="13" y="111" class="tf fk">ownership_type_id<tspan x="152.77" class="ty">int</tspan></text><text x="13" y="136" class="tf">note<tspan x="152.77" class="ty">varchar(1000)</tspan></text></svg><svg width="148.6" height="275" x="621" y="35" id="h1005732097" class="t"><rect height="40" width="148.6" class="th"></rect><text x="13" y="25" class="tht">fee</text><rect height="235" width="148.6" class="t-bg" y="40"></rect><text x="13" y="61" class="tf pk">id<tspan x="135.6" class="ty">int</tspan></text><path d="M7,14A2,2 0 0,1 5,12A2,2 0 0,1 7,10A2,2 0 0,1 9,12A2,2 0 0,1 7,14M12.65,10C11.83,7.67 9.61,6 7, 6A6, 6 0 0, 0 1, 12A6, 6 0 0, 0 7, 18C9.61, 18 11.83, 16.33 12.65, 14H17V18H21V14H23V10H12.65Z" class="i pk" transform="translate(100.7666669845581, 48) scale(0.65)"></path><text x="13" y="86" class="tf fk">vehicle_id<tspan x="135.6" class="ty">int</tspan></text><text x="13" y="111" class="tf fk">price_id<tspan x="135.6" class="ty">int</tspan></text><text x="13" y="136" class="tf">issue_date<tspan x="135.6" class="ty">date</tspan></text><text x="13" y="161" class="tf">issue_time<tspan x="135.6" class="ty">time</tspan></text><text x="13" y="186" class="tf">amount<tspan x="135.6" class="ty">double</tspan></text><text x="13" y="211" class="tf">due_date<tspan x="135.6" class="ty">date</tspan></text><text x="13" y="236" class="tf">is_closed<tspan x="135.6" class="ty">bool</tspan></text><text x="13" y="261" class="tf">note<tspan x="135.6" class="ty">varchar(1000)</tspan></text></svg><svg width="148.6" height="150" x="871" y="90" id="h2937671521" class="t"><rect height="40" width="148.6" class="th"></rect><text x="13" y="25" class="tht">fee_payment</text><rect height="110" width="148.6" class="t-bg" y="40"></rect><text x="13" y="61" class="tf pk">id<tspan x="135.6" class="ty">int</tspan></text><path d="M7,14A2,2 0 0,1 5,12A2,2 0 0,1 7,10A2,2 0 0,1 9,12A2,2 0 0,1 7,14M12.65,10C11.83,7.67 9.61,6 7, 6A6, 6 0 0, 0 1, 12A6, 6 0 0, 0 7, 18C9.61, 18 11.83, 16.33 12.65, 14H17V18H21V14H23V10H12.65Z" class="i pk" transform="translate(100.7666669845581, 48) scale(0.65)"></path><text x="13" y="86" class="tf fk">fee_id<tspan x="135.6" class="ty">int?</tspan></text><text x="13" y="111" class="tf">amount<tspan x="135.6" class="ty">double</tspan></text><text x="13" y="136" class="tf">note<tspan x="135.6" class="ty">varchar(1000)</tspan></text></svg><svg width="153.5" height="250" x="776" y="404" id="h2088536657" class="t"><rect height="40" width="153.5" class="th"></rect><text x="13" y="25" class="tht">payment</text><rect height="210" width="153.5" class="t-bg" y="40"></rect><text x="13" y="61" class="tf pk">id<tspan x="140.5" class="ty">int</tspan></text><path d="M7,14A2,2 0 0,1 5,12A2,2 0 0,1 7,10A2,2 0 0,1 9,12A2,2 0 0,1 7,14M12.65,10C11.83,7.67 9.61,6 7, 6A6, 6 0 0, 0 1, 12A6, 6 0 0, 0 7, 18C9.61, 18 11.83, 16.33 12.65, 14H17V18H21V14H23V10H12.65Z" class="i pk" transform="translate(105.6666669845581, 48) scale(0.65)"></path><text x="13" y="86" class="tf fk">price_id<tspan x="140.5" class="ty">int</tspan></text><text x="13" y="111" class="tf fk">vehicle_id<tspan x="140.5" class="ty">int</tspan></text><text x="13" y="136" class="tf fk">zone_id<tspan x="140.5" class="ty">int</tspan></text><text x="13" y="161" class="tf">amount<tspan x="140.5" class="ty">double</tspan></text><text x="13" y="186" class="tf">start_time<tspan x="140.5" class="ty">datetime</tspan></text><text x="13" y="211" class="tf">end_time<tspan x="140.5" class="ty">datetime</tspan></text><text x="13" y="236" class="tf">note<tspan x="140.5" class="ty">varchar(1000)</tspan></text></svg></g></g><text class="qdbd-link" x="10" y="20">www.quickdatabasediagrams.com</text></svg>